<svg width="24" height="24" viewBox="0 0 24 24" fill="none" xmlns="http://www.w3.org/2000/svg">
<g id="Component 4">
<path id="Vector" d="M21.7498 12.0007C21.745 14.3828 20.8708 16.6812 19.2913 18.4643C17.7119 20.2475 15.5358 21.3927 13.1717 21.6851C13.119 21.6903 13.0657 21.6845 13.0153 21.6681C12.9649 21.6517 12.9184 21.625 12.8788 21.5898C12.8392 21.5546 12.8073 21.5116 12.7851 21.4634C12.7629 21.4153 12.7509 21.3631 12.7498 21.3101V14.2507H14.9998C15.1024 14.2509 15.2039 14.2301 15.2981 14.1895C15.3923 14.1489 15.4772 14.0894 15.5475 14.0147C15.6178 13.94 15.672 13.8517 15.7068 13.7552C15.7416 13.6588 15.7563 13.5562 15.7498 13.4538C15.7333 13.2599 15.6437 13.0795 15.4993 12.949C15.3549 12.8185 15.1663 12.7476 14.9717 12.7507H12.7498V10.5007C12.7498 10.1029 12.9079 9.72134 13.1892 9.44003C13.4705 9.15873 13.852 9.00069 14.2498 9.00069H15.7498C15.8524 9.00089 15.9539 8.98006 16.0481 8.93947C16.1423 8.89888 16.2272 8.83941 16.2975 8.76472C16.3678 8.69003 16.422 8.60172 16.4568 8.50525C16.4916 8.40877 16.5063 8.30618 16.4998 8.20382C16.4833 8.00988 16.3937 7.82946 16.2493 7.69897C16.1049 7.56847 15.9163 7.49761 15.7217 7.50069H14.2498C13.4542 7.50069 12.6911 7.81676 12.1285 8.37937C11.5659 8.94198 11.2498 9.70504 11.2498 10.5007V12.7507H8.99985C8.89729 12.7505 8.79577 12.7713 8.70158 12.8119C8.60739 12.8525 8.52253 12.912 8.45223 12.9867C8.38194 13.0614 8.32771 13.1497 8.2929 13.2461C8.25809 13.3426 8.24344 13.4452 8.24985 13.5476C8.26644 13.7415 8.35598 13.9219 8.5004 14.0524C8.64481 14.1829 8.83336 14.2538 9.02797 14.2507H11.2498V21.3101C11.2501 21.3626 11.2393 21.4147 11.2182 21.4628C11.197 21.5109 11.166 21.5541 11.1271 21.5894C11.0882 21.6248 11.0423 21.6516 10.9924 21.6681C10.9425 21.6845 10.8897 21.6903 10.8373 21.6851C5.88735 21.0851 2.06235 16.7819 2.25922 11.6351C2.36974 9.0933 3.4694 6.69541 5.32347 4.95323C7.17755 3.21105 9.63917 2.26259 12.1829 2.31031C14.7266 2.35803 17.1509 3.39814 18.9384 5.20863C20.7258 7.01912 21.7347 9.45657 21.7498 12.0007Z" fill="white"/>
</g>
</svg>
